<svg width="43" height="43" viewBox="0 0 43 43" fill="none" xmlns="http://www.w3.org/2000/svg">
<g clip-path="url(#clip0_1_166)">
<path d="M18.0267 16.0972C18.5622 16.0972 19.0574 16.1391 19.5099 16.2631C19.9205 16.3385 20.3124 16.4934 20.6637 16.7189C20.9938 16.9259 21.241 17.2167 21.4053 17.5895C21.5703 17.9624 21.6524 18.4191 21.6524 18.916C21.6524 19.4967 21.5293 19.9936 21.241 20.3664C20.9938 20.7402 20.5816 21.0711 20.0872 21.32C20.7877 21.5278 21.3231 21.9007 21.6524 22.3976C21.9826 22.8953 22.1887 23.5171 22.1887 24.2218C22.1887 24.8024 22.0647 25.2993 21.8586 25.7141C21.6524 26.1289 21.3231 26.5018 20.9519 26.7506C20.5487 27.0174 20.103 27.2135 19.6339 27.3305C19.1395 27.4553 18.6451 27.5383 18.1507 27.5383H12.6279V16.0972H18.0267ZM17.6966 20.7393C18.1499 20.7393 18.5211 20.6153 18.8093 20.4083C19.0976 20.2014 19.2216 19.8277 19.2216 19.3718C19.2216 19.123 19.1797 18.8741 19.0976 18.709C19.0155 18.5431 18.8915 18.4183 18.7272 18.2942C18.5622 18.2113 18.3971 18.1283 18.191 18.0873C17.9848 18.0454 17.7795 18.0454 17.5315 18.0454H15.1417V20.7402H17.6974L17.6966 20.7393ZM17.8206 25.6312C18.0678 25.6312 18.315 25.5893 18.5211 25.5482C18.7292 25.5086 18.9261 25.4237 19.0976 25.2993C19.2655 25.178 19.406 25.0227 19.5099 24.8435C19.592 24.6365 19.6749 24.3877 19.6749 24.0977C19.6749 23.5171 19.5099 23.1023 19.1805 22.8124C18.8504 22.5635 18.3971 22.4395 17.8616 22.4395H15.1417V25.632L17.8206 25.6312ZM25.7742 25.5893C26.1035 25.9211 26.5979 26.087 27.2574 26.087C27.7107 26.087 28.1229 25.963 28.4523 25.756C28.7824 25.5071 28.9885 25.2583 29.0706 25.0094H31.0901C30.7599 26.004 30.2655 26.7087 29.6069 27.1646C28.9466 27.5794 28.164 27.8282 27.2163 27.8282C26.61 27.8301 26.0087 27.7175 25.4441 27.4964C24.9361 27.3058 24.483 26.9926 24.1252 26.5847C23.7425 26.2031 23.4596 25.7332 23.3015 25.2164C23.0954 24.6776 23.0124 24.0977 23.0124 23.4341C23.0124 22.8124 23.0954 22.2325 23.3015 21.6929C23.4997 21.1734 23.7929 20.6955 24.1662 20.2835C24.5374 19.9106 24.9908 19.5796 25.4851 19.3718C26.0354 19.1507 26.6233 19.038 27.2163 19.04C27.9168 19.04 28.5352 19.1648 29.0706 19.4548C29.6069 19.7447 30.0184 20.0765 30.3485 20.5742C30.6853 21.0523 30.9362 21.5854 31.0901 22.1496C31.1722 22.7294 31.2132 23.3101 31.1722 23.9729H25.1969C25.1969 24.6365 25.4441 25.2583 25.7742 25.5901V25.5893ZM28.3701 21.2371C28.0819 20.9471 27.6286 20.7812 27.0923 20.7812C26.7779 20.7765 26.4669 20.8475 26.1857 20.9882C25.9385 21.113 25.7742 21.2789 25.6092 21.4449C25.4575 21.6051 25.3571 21.807 25.3209 22.0247C25.279 22.2325 25.238 22.3976 25.238 22.5635H28.9466C28.8645 21.9418 28.6584 21.5278 28.3701 21.2371ZM24.7436 16.8848H29.3589V18.0043H24.7444V16.8848H24.7436Z" fill="white"/>
</g>
<circle cx="21.8448" cy="21.6694" r="20.4483" stroke="#000DFF"/>
<defs>
<clipPath id="clip0_1_166">
<rect width="20.1103" height="20.1103" fill="white" transform="translate(11.79 11.6143)"/>
</clipPath>
</defs>
</svg>
