<svg width="42" height="43" viewBox="0 0 42 43" fill="none" xmlns="http://www.w3.org/2000/svg">
<path d="M27.6429 21.3108C27.5742 19.9918 27.1154 18.7229 26.3248 17.665C26.0839 17.9244 25.8264 18.1679 25.5539 18.394C24.7168 19.0893 23.7813 19.6569 22.7778 20.0782C22.9178 20.3715 23.046 20.6555 23.1591 20.9237V20.9262C23.191 21.0011 23.2218 21.0765 23.2513 21.1524C24.5199 21.01 25.8572 21.0619 27.1535 21.2371C27.3261 21.2605 27.4887 21.2857 27.6429 21.3108ZM19.7789 15.0682C20.5955 16.2188 21.3485 17.4133 22.0346 18.6462C23.0594 18.2423 23.9065 17.7328 24.5886 17.1655C24.8254 16.9704 25.0482 16.759 25.2556 16.5329C24.0498 15.5188 22.5242 14.9637 20.9486 14.966C20.5565 14.9657 20.1651 14.9996 19.7789 15.0674V15.0682ZM14.4572 19.991C15.028 19.9766 15.5982 19.9423 16.1666 19.888C17.5405 19.7651 18.9026 19.5348 20.2406 19.1992C19.5413 17.9844 18.7864 16.8025 17.9782 15.6573C17.1149 16.0849 16.3536 16.6933 15.7461 17.441C15.1386 18.1888 14.699 19.0585 14.4572 19.991ZM15.7392 25.8884C16.0643 25.4133 16.4917 24.8787 17.059 24.2972C18.2773 23.0487 19.7152 22.0767 21.3793 21.5404L21.4313 21.5253C21.293 21.2203 21.1632 20.948 21.0324 20.6916C19.494 21.1399 17.8734 21.4197 16.2587 21.5647C15.4711 21.6359 14.7647 21.6669 14.2452 21.6719C14.2437 23.2075 14.7708 24.6967 15.7392 25.8884ZM23.4666 27.8827C23.1435 26.2531 22.6861 24.6531 22.0991 23.0989C20.4216 23.7081 19.0851 24.5988 18.0519 25.6613C17.635 26.0823 17.2649 26.5473 16.9484 27.0481C18.1037 27.9102 19.5071 28.3749 20.9486 28.3729C21.8116 28.3741 22.6667 28.2082 23.4666 27.8844V27.8827ZM25.0361 26.9819C26.3443 25.9762 27.2355 24.5232 27.539 22.9012C27.2541 22.83 26.8929 22.7587 26.4957 22.7034C25.6127 22.5763 24.7166 22.567 23.8311 22.6758C24.3297 24.0825 24.7323 25.5206 25.0361 26.9819ZM20.9486 30.0487C16.3208 30.0487 12.5693 26.2973 12.5693 21.6694C12.5693 17.0415 16.3208 13.2901 20.9486 13.2901C25.5765 13.2901 29.328 17.0415 29.328 21.6694C29.328 26.2973 25.5765 30.0487 20.9486 30.0487Z" fill="white"/>
<circle cx="20.9483" cy="21.6694" r="20.4483" stroke="#00FFEA"/>
</svg>
