<svg width="43" height="43" viewBox="0 0 43 43" fill="none" xmlns="http://www.w3.org/2000/svg">
<path d="M22.2073 11.7212C20.8941 11.7212 19.5937 11.9799 18.3804 12.4824C17.1672 12.985 16.0648 13.7216 15.1362 14.6502C13.2608 16.5255 12.2073 19.0691 12.2073 21.7212C12.2073 26.1412 15.0773 29.8912 19.0473 31.2212C19.5473 31.3012 19.7073 30.9912 19.7073 30.7212V29.0312C16.9373 29.6312 16.3473 27.6912 16.3473 27.6912C15.8873 26.5312 15.2373 26.2212 15.2373 26.2212C14.3273 25.6012 15.3073 25.6212 15.3073 25.6212C16.3073 25.6912 16.8373 26.6512 16.8373 26.6512C17.7073 28.1712 19.1773 27.7212 19.7473 27.4812C19.8373 26.8312 20.0973 26.3912 20.3773 26.1412C18.1573 25.8912 15.8273 25.0312 15.8273 21.2212C15.8273 20.1112 16.2073 19.2212 16.8573 18.5112C16.7573 18.2612 16.4073 17.2212 16.9573 15.8712C16.9573 15.8712 17.7973 15.6012 19.7073 16.8912C20.4973 16.6712 21.3573 16.5612 22.2073 16.5612C23.0573 16.5612 23.9173 16.6712 24.7073 16.8912C26.6173 15.6012 27.4573 15.8712 27.4573 15.8712C28.0073 17.2212 27.6573 18.2612 27.5573 18.5112C28.2073 19.2212 28.5873 20.1112 28.5873 21.2212C28.5873 25.0412 26.2473 25.8812 24.0173 26.1312C24.3773 26.4412 24.7073 27.0512 24.7073 27.9812V30.7212C24.7073 30.9912 24.8673 31.3112 25.3773 31.2212C29.3473 29.8812 32.2073 26.1412 32.2073 21.7212C32.2073 20.408 31.9486 19.1076 31.4461 17.8944C30.9435 16.6811 30.2069 15.5787 29.2783 14.6502C28.3498 13.7216 27.2474 12.985 26.0341 12.4824C24.8209 11.9799 23.5205 11.7212 22.2073 11.7212Z" fill="white"/>
<circle cx="21.7415" cy="21.6694" r="20.4483" stroke="#FB00FF"/>
</svg>
