<svg width="43" height="43" viewBox="0 0 43 43" fill="none" xmlns="http://www.w3.org/2000/svg">
<path d="M17.3988 15.8039C17.3986 16.2484 17.2218 16.6746 16.9074 16.9887C16.593 17.3028 16.1666 17.4792 15.7221 17.479C15.2777 17.4787 14.8515 17.302 14.5374 16.9875C14.2232 16.6731 14.0469 16.2467 14.0471 15.8023C14.0473 15.3578 14.2241 14.9316 14.5386 14.6175C14.853 14.3034 15.2794 14.127 15.7238 14.1272C16.1683 14.1275 16.5945 14.3042 16.9086 14.6187C17.2227 14.9331 17.3991 15.3595 17.3988 15.8039ZM17.4491 18.7199H14.0974V29.2108H17.4491V18.7199ZM22.7448 18.7199H19.4099V29.2108H22.7113V23.7056C22.7113 20.6388 26.7083 20.3539 26.7083 23.7056V29.2108H30.0181V22.566C30.0181 17.396 24.1023 17.5887 22.7113 20.1277L22.7448 18.7199Z" fill="white"/>
<circle cx="21.638" cy="21.6694" r="20.4483" stroke="#44FF00"/>
</svg>
