<svg width="19" height="20" viewBox="0 0 19 20" fill="none" xmlns="http://www.w3.org/2000/svg">
<path d="M14.7071 10.4624C14.5196 10.275 14.2653 10.1696 14.0001 10.1696C13.7349 10.1696 13.4806 10.275 13.2931 10.4624L11.6991 12.0564C10.9601 11.8364 9.58109 11.3364 8.70709 10.4624C7.83309 9.58843 7.33309 8.20943 7.11309 7.47043L8.70709 5.87643C8.89456 5.68891 8.99988 5.4346 8.99988 5.16943C8.99988 4.90427 8.89456 4.64996 8.70709 4.46243L4.70709 0.462434C4.51956 0.274963 4.26525 0.169647 4.00009 0.169647C3.73493 0.169647 3.48062 0.274963 3.29309 0.462434L0.58109 3.17443C0.20109 3.55443 -0.0129104 4.07643 -0.00491041 4.60943C0.0180896 6.03343 0.39509 10.9794 4.29309 14.8774C8.19109 18.7754 13.1371 19.1514 14.5621 19.1754H14.5901C15.1181 19.1754 15.6171 18.9674 15.9951 18.5894L18.7071 15.8774C18.8946 15.6899 18.9999 15.4356 18.9999 15.1704C18.9999 14.9053 18.8946 14.651 18.7071 14.4634L14.7071 10.4624ZM14.5801 17.1744C13.3321 17.1534 9.06209 16.8184 5.70709 13.4624C2.34109 10.0964 2.01509 5.81143 1.99509 4.58843L4.00009 2.58343L6.58609 5.16943L5.29309 6.46243C5.17555 6.57988 5.08913 6.72477 5.04164 6.884C4.99415 7.04323 4.98709 7.21179 5.02109 7.37443C5.04509 7.48943 5.63209 10.2164 7.29209 11.8764C8.95209 13.5364 11.6791 14.1234 11.7941 14.1474C11.9566 14.1825 12.1254 14.176 12.2848 14.1287C12.4442 14.0813 12.5891 13.9946 12.7061 13.8764L14.0001 12.5834L16.5861 15.1694L14.5801 17.1744Z" fill="white"/>
</svg>
