<svg width="20" height="21" viewBox="0 0 20 21" fill="none" xmlns="http://www.w3.org/2000/svg">
<g clip-path="url(#clip0_104_3142)">
<path d="M15.7071 10.4624C15.5196 10.275 15.2653 10.1696 15.0001 10.1696C14.7349 10.1696 14.4806 10.275 14.2931 10.4624L12.6991 12.0564C11.9601 11.8364 10.5811 11.3364 9.70709 10.4624C8.83309 9.58843 8.33309 8.20943 8.11309 7.47043L9.70709 5.87643C9.89456 5.68891 9.99988 5.4346 9.99988 5.16943C9.99988 4.90427 9.89456 4.64996 9.70709 4.46243L5.70709 0.462434C5.51956 0.274963 5.26525 0.169647 5.00009 0.169647C4.73493 0.169647 4.48062 0.274963 4.29309 0.462434L1.58109 3.17443C1.20109 3.55443 0.98709 4.07643 0.99509 4.60943C1.01809 6.03343 1.39509 10.9794 5.29309 14.8774C9.19109 18.7754 14.1371 19.1514 15.5621 19.1754H15.5901C16.1181 19.1754 16.6171 18.9674 16.9951 18.5894L19.7071 15.8774C19.8946 15.6899 19.9999 15.4356 19.9999 15.1704C19.9999 14.9053 19.8946 14.651 19.7071 14.4634L15.7071 10.4624ZM15.5801 17.1744C14.3321 17.1534 10.0621 16.8184 6.70709 13.4624C3.34109 10.0964 3.01509 5.81143 2.99509 4.58843L5.00009 2.58343L7.58609 5.16943L6.29309 6.46243C6.17555 6.57988 6.08913 6.72477 6.04164 6.884C5.99415 7.04323 5.98709 7.21179 6.02109 7.37443C6.04509 7.48943 6.63209 10.2164 8.29209 11.8764C9.95209 13.5364 12.6791 14.1234 12.7941 14.1474C12.9566 14.1825 13.1254 14.176 13.2848 14.1287C13.4442 14.0813 13.5891 13.9946 13.7061 13.8764L15.0001 12.5834L17.5861 15.1694L15.5801 17.1744Z" fill="#FFC700"/>
</g>
<defs>
<clipPath id="clip0_104_3142">
<rect width="20" height="20" fill="white" transform="translate(0 0.169434)"/>
</clipPath>
</defs>
</svg>
