<svg width="24" height="24" viewBox="0 0 24 24" fill="none" xmlns="http://www.w3.org/2000/svg">
<path d="M22.2803 14.4697L20.0303 12.2197C19.8896 12.0791 19.6989 12.0002 19.5 12.0002C19.3011 12.0002 19.1104 12.0791 18.9697 12.2197L12 19.1895V22.5H15.3105L22.2803 15.5303C22.4209 15.3896 22.4998 15.1989 22.4998 15C22.4998 14.8011 22.4209 14.6104 22.2803 14.4697ZM14.6895 21H13.5V19.8105L17.25 16.0605L18.4395 17.25L14.6895 21ZM19.5 16.1895L18.3105 15L19.5 13.8105L20.6895 15L19.5 16.1895ZM13.5 13.5V10.5H15V13.5H13.5ZM10.5 13.5V9H12V13.5H10.5ZM7.5 13.5V6H9V13.5H7.5Z" fill="#FFC700"/>
<path d="M9 22.5H4.5C4.1023 22.4996 3.721 22.3414 3.43978 22.0602C3.15856 21.779 3.0004 21.3977 3 21L3 3C3.0004 2.6023 3.15856 2.221 3.43978 1.93978C3.721 1.65856 4.1023 1.5004 4.5 1.5L16.5 1.5C16.8977 1.5004 17.279 1.65856 17.5602 1.93978C17.8414 2.221 17.9996 2.6023 18 3V10.5H16.5V3H4.5V21H9V22.5Z" fill="#FFC700"/>
</svg>
