<svg width="24" height="18" viewBox="0 0 24 18" fill="none" xmlns="http://www.w3.org/2000/svg">
<path d="M1.71429 0H10.2857C10.7404 0 11.1764 0.189642 11.4979 0.527208C11.8194 0.864773 12 1.32261 12 1.8C12 2.27739 11.8194 2.73523 11.4979 3.07279C11.1764 3.41036 10.7404 3.6 10.2857 3.6H1.71429C1.25963 3.6 0.823594 3.41036 0.502103 3.07279C0.180612 2.73523 0 2.27739 0 1.8C0 1.32261 0.180612 0.864773 0.502103 0.527208C0.823594 0.189642 1.25963 0 1.71429 0ZM13.7143 14.4H22.2857C22.7404 14.4 23.1764 14.5896 23.4979 14.9272C23.8194 15.2648 24 15.7226 24 16.2C24 16.6774 23.8194 17.1352 23.4979 17.4728C23.1764 17.8104 22.7404 18 22.2857 18H13.7143C13.2596 18 12.8236 17.8104 12.5021 17.4728C12.1806 17.1352 12 16.6774 12 16.2C12 15.7226 12.1806 15.2648 12.5021 14.9272C12.8236 14.5896 13.2596 14.4 13.7143 14.4ZM1.71429 7.2H22.2857C22.7404 7.2 23.1764 7.38964 23.4979 7.72721C23.8194 8.06477 24 8.52261 24 9C24 9.47739 23.8194 9.93523 23.4979 10.2728C23.1764 10.6104 22.7404 10.8 22.2857 10.8H1.71429C1.25963 10.8 0.823594 10.6104 0.502103 10.2728C0.180612 9.93523 0 9.47739 0 9C0 8.52261 0.180612 8.06477 0.502103 7.72721C0.823594 7.38964 1.25963 7.2 1.71429 7.2Z" fill="white"/>
</svg>
