<svg width="25" height="25" viewBox="0 0 25 25" fill="none" xmlns="http://www.w3.org/2000/svg">
<path fill-rule="evenodd" clip-rule="evenodd" d="M8.66703 1C8.66703 0.447715 8.21931 0 7.66703 0C7.11474 0 6.66703 0.447715 6.66703 1V2.22248H2.48148C1.87694 2.22248 1.29113 2.405 0.83392 2.74791C0.376401 3.09104 0 3.64142 0 4.33358L0 22.1111C0 22.8033 0.376401 23.3537 0.83392 23.6968C1.29113 24.0397 1.87694 24.2222 2.48148 24.2222H21.7407C22.3453 24.2222 22.9311 24.0397 23.3883 23.6968C23.8458 23.3537 24.2222 22.8033 24.2222 22.1111V4.33358C24.2222 3.64142 23.8458 3.09104 23.3883 2.74791C22.9311 2.405 22.3453 2.22248 21.7407 2.22248H17.5559V1C17.5559 0.447715 17.1082 0 16.5559 0C16.0036 0 15.5559 0.447715 15.5559 1V2.22248L8.66703 2.22248V1ZM6.66703 4.22248V4.33329C6.66703 4.88558 7.11474 5.33329 7.66703 5.33329C8.21931 5.33329 8.66703 4.88558 8.66703 4.33329V4.22248H15.5559V4.33329C15.5559 4.88558 16.0036 5.33329 16.5559 5.33329C17.1082 5.33329 17.5559 4.88558 17.5559 4.33329V4.22248H21.7407C21.9544 4.22248 22.1093 4.28868 22.1883 4.34791C22.2042 4.35981 22.215 4.36952 22.2222 4.37679V22.0679C22.215 22.0752 22.2042 22.0849 22.1883 22.0968C22.1093 22.156 21.9544 22.2222 21.7407 22.2222H2.48148C2.26783 22.2222 2.11289 22.156 2.03391 22.0968C2.01805 22.0849 2.00721 22.0752 2 22.0679L2 4.37679C2.00721 4.36952 2.01805 4.35981 2.03391 4.34791C2.11289 4.28868 2.26783 4.22248 2.48148 4.22248H6.66703ZM6.18555 8.33323C5.63326 8.33323 5.18555 8.78095 5.18555 9.33323C5.18555 9.88552 5.63326 10.3332 6.18555 10.3332H18.0374C18.5897 10.3332 19.0374 9.88552 19.0374 9.33323C19.0374 8.78095 18.5897 8.33323 18.0374 8.33323H6.18555ZM6.18555 12.7776C5.63326 12.7776 5.18555 13.2253 5.18555 13.7776C5.18555 14.3299 5.63326 14.7776 6.18555 14.7776H15.0744C15.6267 14.7776 16.0744 14.3299 16.0744 13.7776C16.0744 13.2253 15.6267 12.7776 15.0744 12.7776H6.18555ZM6.18555 17.222C5.63326 17.222 5.18555 17.6697 5.18555 18.222C5.18555 18.7743 5.63326 19.222 6.18555 19.222H12.1115C12.6638 19.222 13.1115 18.7743 13.1115 18.222C13.1115 17.6697 12.6638 17.222 12.1115 17.222H6.18555ZM1.98735 4.39237C1.98717 4.39234 1.98791 4.39083 1.9901 4.38793C1.98862 4.39095 1.98752 4.3924 1.98735 4.39237ZM1.98735 22.0523C1.98752 22.0523 1.98862 22.0538 1.9901 22.0568C1.98791 22.0539 1.98717 22.0524 1.98735 22.0523ZM22.2349 22.0523C22.2351 22.0524 22.2343 22.0539 22.2321 22.0568C22.2336 22.0538 22.2347 22.0523 22.2349 22.0523ZM22.2341 4.39149C22.2345 4.3921 22.2348 4.39238 22.2349 4.39237C22.2351 4.39234 22.2343 4.39082 22.2321 4.38793C22.2329 4.38959 22.2336 4.39077 22.2341 4.39149Z" fill="#FFC700"/>
</svg>
