<svg width="24" height="24" viewBox="0 0 24 24" fill="none" xmlns="http://www.w3.org/2000/svg">
<path d="M14.4 20.4C14.4 21.72 12 22.8 12 22.8C12 22.8 9.6 21.72 9.6 20.4H14.4ZM12 8.39995C11.5264 8.3878 11.0756 8.19426 10.7407 7.85929C10.4057 7.52432 10.2121 7.07351 10.2 6.59995C10.2 6.12256 10.3896 5.66472 10.7272 5.32716C11.0648 4.98959 11.5226 4.79995 12 4.79995C12.4774 4.79995 12.9352 4.98959 13.2728 5.32716C13.6104 5.66472 13.8 6.12256 13.8 6.59995C13.7879 7.07351 13.5943 7.52432 13.2593 7.85929C12.9244 8.19426 12.4736 8.3878 12 8.39995ZM15.96 14.04C16.92 9.47995 15.24 1.19995 12 1.19995C8.76 1.19995 6.96 9.23995 7.92 13.8L6 18H9.24L9.6 19.2H14.4C14.64 18.84 14.52 18.6 14.76 18H18L15.96 14.04Z" fill="#FFC700"/>
</svg>
